<svg width="20" height="20" viewBox="0 0 20 20" fill="none" xmlns="http://www.w3.org/2000/svg">
<path fill-rule="evenodd" clip-rule="evenodd" d="M11 10V10C11 10.5523 10.5523 11 10 11V11C9.44772 11 9 10.5523 9 10V10C9 9.44772 9.44772 9 10 9V9C10.5523 9 11 9.44772 11 10Z" stroke="#F0F0F0" stroke-width="2" stroke-linecap="round" stroke-linejoin="round"/>
<path fill-rule="evenodd" clip-rule="evenodd" d="M17 10V10C17 10.5523 16.5523 11 16 11V11C15.4477 11 15 10.5523 15 10V10C15 9.44772 15.4477 9 16 9V9C16.5523 9 17 9.44772 17 10Z" stroke="#F0F0F0" stroke-width="2" stroke-linecap="round" stroke-linejoin="round"/>
<path fill-rule="evenodd" clip-rule="evenodd" d="M5 10V10C5 10.5523 4.55228 11 4 11V11C3.44772 11 3 10.5523 3 10V10C3 9.44772 3.44772 9 4 9V9C4.55228 9 5 9.44772 5 10Z" stroke="#F0F0F0" stroke-width="2" stroke-linecap="round" stroke-linejoin="round"/>
</svg>
