<svg width="25" height="24" viewBox="0 0 25 24" fill="none" xmlns="http://www.w3.org/2000/svg">
<path fill-rule="evenodd" clip-rule="evenodd" d="M21.1443 17.25V17.25C21.1443 19.3211 19.4654 21 17.3943 21V21C15.3232 21 13.6443 19.3211 13.6443 17.25V17.25C13.6443 15.1789 15.3232 13.5 17.3943 13.5V13.5C19.4654 13.5 21.1443 15.1789 21.1443 17.25Z" stroke="#F0F0F0" stroke-width="2" stroke-linecap="round" stroke-linejoin="round"/>
<path fill-rule="evenodd" clip-rule="evenodd" d="M10.6443 17.25V17.25C10.6443 19.3211 8.96535 21 6.89429 21V21C4.82322 21 3.14429 19.3211 3.14429 17.25V17.25C3.14429 15.1789 4.82322 13.5 6.89429 13.5V13.5C8.96535 13.5 10.6443 15.1789 10.6443 17.25Z" stroke="#F0F0F0" stroke-width="2" stroke-linecap="round" stroke-linejoin="round"/>
<path fill-rule="evenodd" clip-rule="evenodd" d="M21.1443 6.75V6.75C21.1443 8.82107 19.4654 10.5 17.3943 10.5V10.5C15.3232 10.5 13.6443 8.82107 13.6443 6.75V6.75C13.6443 4.67893 15.3232 3 17.3943 3V3C19.4654 3 21.1443 4.67893 21.1443 6.75Z" stroke="#F0F0F0" stroke-width="2" stroke-linecap="round" stroke-linejoin="round"/>
<path fill-rule="evenodd" clip-rule="evenodd" d="M10.6443 6.75V6.75C10.6443 8.82107 8.96535 10.5 6.89429 10.5V10.5C4.82322 10.5 3.14429 8.82107 3.14429 6.75V6.75C3.14429 4.67893 4.82322 3 6.89429 3V3C8.96535 3 10.6443 4.67893 10.6443 6.75Z" stroke="#F0F0F0" stroke-width="2" stroke-linecap="round" stroke-linejoin="round"/>
</svg>
