<svg width="24" height="24" viewBox="0 0 24 24" fill="none" xmlns="http://www.w3.org/2000/svg">
<path d="M3.59998 3.6001H5.46667L8.03763 13.7708C8.1311 14.1406 8.4671 14.4001 8.85256 14.4001H18.2973C18.4925 14.4001 18.6626 14.2687 18.7099 14.0815L20.3873 7.44575C20.419 7.3201 20.3905 7.187 20.3099 7.08492C20.2293 6.98284 20.1057 6.92317 19.9747 6.92317H6.34419" stroke="#F0F0F0" stroke-width="2" stroke-linecap="round" stroke-linejoin="round"/>
<path d="M9.83996 19.7402C9.83996 19.8065 9.73251 19.8602 9.59996 19.8602C9.46742 19.8602 9.35996 19.8065 9.35996 19.7402" stroke="#F0F0F0" stroke-width="2" stroke-linecap="round" stroke-linejoin="round"/>
<path d="M17.52 19.7402C17.52 19.8065 17.4663 19.8602 17.4 19.8602C17.3337 19.8602 17.28 19.8065 17.28 19.7402" stroke="#F0F0F0" stroke-width="2" stroke-linecap="round" stroke-linejoin="round"/>
</svg>
