<svg width="150" height="40" viewBox="0 0 150 40" fill="none" xmlns="http://www.w3.org/2000/svg">
<path d="M18.5108 7.71963C14.15 7.71963 9.7892 10.895 9.7892 19.7154C9.7892 26.2213 15.98 32.5485 17.2172 34.8254C17.2172 36.1802 17.236 36.1002 17.2172 36.5283C15.9235 36.5283 15.7071 39.8589 17.0713 39.8589C19.5034 39.9765 19.3435 39.8589 20.3267 39.8589C21.3098 39.8589 21.8038 39.0356 21.8038 38.0148V28.8792C21.832 27.5667 21.0699 26.5789 19.6445 23.7751C19.4799 23.4458 19.8892 23.1307 20.162 23.3753C21.6674 24.7442 23.2856 26.3436 24.0665 27.0116C25.2661 25.8779 26.8185 24.4855 28.004 23.427C28.2815 23.1777 28.6955 23.5211 28.4979 23.841C27.4065 25.6239 26.1458 27.6655 25.6848 28.5876C25.6283 30.1776 25.7412 34.5243 25.7412 35.4087C25.7412 36.2931 23.7419 36.406 23.7419 37.7043C23.7419 39.0027 23.5067 40 25.7412 40C31.3863 40 33.6819 26.0049 33.6819 16.2766C33.6819 14.8936 31.0664 12.6355 30.0691 11.9158C29.975 13.0918 27.7029 17.3256 26.6821 17.3256C25.0356 17.3256 22.2695 15.2793 21.7426 13.0542C21.4604 11.8688 21.3098 7.29154 22.6835 7.29154C23.9442 7.29154 25.2049 8.01599 26.254 8.76867C26.5692 8.99447 26.9878 9.00388 27.3171 8.8016C28.1733 8.27943 29.0718 7.80901 29.0718 7.48912C29.0718 7.09867 28.0134 0 24.838 0C21.6627 0 18.5061 4.9018 18.5061 7.72433L18.5108 7.71963Z" fill="#F0F0F0"/>
<path d="M25.1014 10.8477L26.6256 11.4921C25.0356 11.6427 25.3837 11.6427 25.3837 11.6427L25.1014 10.8524V10.8477Z" fill="#F0F0F0"/>
<path d="M28.9685 10.8477L27.4443 11.4921C29.0344 11.6427 28.6863 11.6427 28.6863 11.6427L28.9685 10.8524V10.8477Z" fill="#F0F0F0"/>
<path d="M5.90884 17.1277C4.57755 17.4617 1.60448 19.3999 1.60448 25.5953C1.60448 27.0207 2.31011 29.2364 2.26777 30.8829C2.23014 32.534 0.023859 35.4507 0.023859 36.782C0.023859 39.1011 -0.258393 39.9103 1.11994 39.9103H5.23614C6.35574 39.9103 6.38397 38.292 5.32552 38.292C4.26707 38.292 4.23884 37.6428 4.23884 36.7349C4.23884 35.827 6.83558 28.8601 9.71456 28.9588C8.94307 28.9588 8.80664 30.737 8.80664 35.62C8.80664 40.503 8.80664 39.9103 9.9827 39.9103H13.8637C14.7481 39.9103 14.7481 38.292 13.8637 38.292C12.9793 38.292 12.5089 37.8216 12.5089 36.7631C12.5089 35.7047 13.0122 31.5321 13.7461 31.5321C12.2454 29.8856 8.80194 24.8379 8.75019 19.2117C8.75019 18.3602 8.8678 17.6546 8.95718 17.2124C8.22332 17.0666 7.00963 16.8455 5.90414 17.123L5.90884 17.1277Z" fill="#F0F0F0"/>
<path d="M28.207 12.9742C28.1035 12.8002 27.8354 12.7672 27.6049 12.899C27.3744 13.0307 27.2662 13.2847 27.3697 13.4588C27.4732 13.6328 27.7413 13.6658 27.9718 13.534C28.2023 13.4023 28.3105 13.1483 28.207 12.9742Z" fill="#F0F0F0"/>
<path d="M26.2065 12.9742C26.31 12.8002 26.5781 12.7672 26.8086 12.899C27.0391 13.0307 27.1473 13.2847 27.0438 13.4588C26.9403 13.6328 26.6722 13.6658 26.4417 13.534C26.2112 13.3976 26.103 13.1483 26.2065 12.9742Z" fill="#F0F0F0"/>
<path d="M62.7289 0.873186H58.9284C58.4542 0.873186 58.0637 1.18002 58.0637 1.55659V16.0405L51.125 1.5008C50.9646 1.16607 50.5114 0.991735 50.086 1.09634C49.9256 0.956868 49.7024 0.873186 49.4514 0.873186H45.6578C45.1836 0.873186 44.7931 1.18002 44.7931 1.55659V26.8146C44.7931 27.1912 45.1766 27.498 45.6578 27.498H49.4584C49.9326 27.498 50.3231 27.1912 50.3231 26.8146V11.6821L57.5964 26.9122C57.7289 27.1842 58.0637 27.3516 58.4123 27.3446C58.5588 27.4352 58.7401 27.491 58.9423 27.491H62.7429C63.2171 27.491 63.6076 27.1842 63.6076 26.8076V1.54962C63.6076 1.17305 63.224 0.866211 62.7429 0.866211L62.7289 0.873186Z" fill="#F0F0F0"/>
<path d="M106.733 0.873186L103.114 0.887136C102.654 0.817401 102.207 1.06147 102.117 1.43107L97.4724 21.0126L92.9397 1.46593C92.856 1.09634 92.4097 0.859239 91.9424 0.922L88.2116 0.866211C87.7514 0.935946 87.4445 1.28462 87.5282 1.65422L93.4069 26.717C93.4906 27.0866 93.9369 27.3237 94.4041 27.2609L97.4655 27.24L100.527 27.2609C100.987 27.3306 101.433 27.0866 101.524 26.717L107.403 1.66119C107.486 1.29159 107.18 0.942921 106.719 0.873186H106.733Z" fill="#F0F0F0"/>
<path d="M127.57 1.50764C127.57 1.15896 127.207 0.873047 126.768 0.873047H122.849C122.402 0.873047 122.047 1.15896 122.047 1.50764V23.244C122.047 23.3138 122.047 23.3765 122.047 23.4393H121.886C121.824 23.3974 116.593 23.3974 116.531 23.4393H116.363V1.51461C116.363 1.15896 116.001 0.873047 115.554 0.873047H111.642C111.196 0.873047 110.833 1.15896 110.833 1.51461L110.687 23.4393C110.638 23.4393 110.729 23.4393 110.687 23.4393C110.687 25.6987 113.002 27.5327 115.861 27.5327C116.098 27.5327 116.335 27.5118 116.566 27.4909C116.614 27.5188 116.677 27.5327 116.74 27.5327H121.656C121.698 27.5327 121.74 27.5258 121.782 27.5118C121.949 27.5258 122.116 27.5327 122.284 27.5327C125.08 27.5327 127.354 25.7684 127.444 23.5718C127.521 23.4742 127.563 23.3626 127.563 23.244V1.50764H127.57Z" fill="#F0F0F0"/>
<path d="M149.144 5.28045C149.144 3.02104 146.829 1.18701 143.97 1.18701C143.754 1.18701 143.545 1.20096 143.335 1.22188C143.287 1.20096 143.238 1.18701 143.175 1.18701H138.252C138.203 1.18701 138.161 1.19398 138.119 1.20793C137.952 1.19398 137.778 1.18701 137.603 1.18701C134.877 1.18701 132.652 2.85367 132.45 4.97362C132.387 5.04335 132.345 5.12006 132.345 5.21072V14.0113C132.345 14.2414 132.575 14.4227 132.861 14.4227H132.868C132.917 14.4506 132.966 14.4785 133.029 14.4994L143.552 17.3516V23.3069H137.833C137.854 23.2721 137.868 23.2302 137.868 23.1814V18.8648C137.868 18.7044 137.701 18.5719 137.499 18.5719H132.715C132.513 18.5719 132.345 18.7044 132.345 18.8648V23.1814C132.345 23.2512 132.38 23.3139 132.436 23.3627C132.478 25.5943 134.772 27.4004 137.603 27.4004C137.778 27.4004 137.945 27.3934 138.119 27.3795C138.161 27.3934 138.203 27.4004 138.252 27.4004H143.175C143.231 27.4004 143.287 27.3864 143.335 27.3655C143.545 27.3864 143.754 27.4004 143.97 27.4004C146.794 27.4004 149.089 25.6012 149.137 23.3767V23.3627V14.8411C149.137 14.7923 149.123 14.7505 149.102 14.7156C149.186 14.4785 149.033 14.2205 148.726 14.1438L137.861 11.2009V5.30137H143.545V9.67376C143.545 9.84112 143.712 9.97362 143.921 9.97362H148.761C148.97 9.97362 149.137 9.84112 149.137 9.67376V5.30137L149.144 5.28045Z" fill="#F0F0F0"/>
<path d="M84.7866 5.1619C84.7099 2.95828 82.4295 1.18701 79.6192 1.18701C79.424 1.18701 79.2357 1.20095 79.0404 1.2149C78.9986 1.20095 78.9498 1.18701 78.894 1.18701H73.9707C73.9149 1.18701 73.8661 1.20095 73.8242 1.2149C73.636 1.20095 73.4407 1.18701 73.2454 1.18701C70.3863 1.18701 68.0711 3.02104 68.0711 5.28045H68.1129C68.1129 5.28045 68.099 5.35019 68.099 5.38505V23.3H68.0711C68.0711 25.5594 70.3863 27.3934 73.2454 27.3934C73.3989 27.3934 73.5453 27.3934 73.6917 27.3795C73.7545 27.4492 73.8521 27.498 73.9707 27.498H78.887C79.0056 27.498 79.1032 27.4492 79.1659 27.3795C79.3124 27.3864 79.4658 27.3934 79.6122 27.3934C82.297 27.3934 84.5076 25.7686 84.7587 23.6905C84.8075 23.6138 84.8354 23.5301 84.8354 23.4394V5.38505C84.8354 5.30835 84.8145 5.23164 84.7796 5.1619H84.7866ZM79.3194 5.38505V23.293H73.636V5.37808C73.636 5.34321 73.636 5.30834 73.622 5.27348H79.3333C79.3333 5.27348 79.3194 5.34321 79.3194 5.37808V5.38505Z" fill="#F0F0F0"/>
<path d="M45.0421 33.1815C45.0421 33.1055 45.0214 33.0434 44.9869 33.0019C44.9523 32.9536 44.8902 32.9329 44.7935 32.9329V32.8086H48.2668C48.9504 32.8086 49.4407 32.9329 49.7307 33.1884C50.0276 33.4439 50.1726 33.8029 50.1726 34.2656C50.1726 34.7835 50.0276 35.1839 49.7307 35.4671C49.4407 35.7502 48.9573 35.8883 48.2875 35.8883H45.9121V37.87C45.9121 37.946 45.926 38.0081 45.9605 38.0496C45.995 38.091 46.0572 38.1186 46.1538 38.1186V38.2429H44.7935V38.1186C44.8902 38.1186 44.9523 38.0979 44.9869 38.0496C45.0214 38.0012 45.0421 37.946 45.0421 37.87V33.1746V33.1815ZM48.2461 35.1839C48.6673 35.1839 48.9642 35.1011 49.1368 34.9492C49.3095 34.7904 49.3992 34.5763 49.3992 34.3001C49.3992 34.0239 49.3233 33.8305 49.1645 33.7062C49.0125 33.582 48.7018 33.5129 48.2461 33.5129H45.9121V35.1909H48.2461V35.1839Z" fill="#F0F0F0"/>
<path d="M53.4251 37.8701C53.4251 37.9461 53.4389 38.0082 53.4734 38.0496C53.5079 38.0911 53.5701 38.1187 53.6737 38.1187V38.243H52.3065V38.1187C52.4031 38.1187 52.4653 38.098 52.5067 38.0496C52.5412 38.0013 52.555 37.9461 52.555 37.8701V33.1746C52.555 33.0987 52.5412 33.0365 52.5067 32.9951C52.4722 32.9468 52.4031 32.9261 52.3065 32.9261V32.8018H55.7728C56.4564 32.8018 56.9467 32.933 57.2367 33.1884C57.5336 33.4439 57.6786 33.8237 57.6786 34.3071C57.6786 34.7421 57.5612 35.0874 57.3403 35.3428C57.1124 35.5983 56.7395 35.7571 56.2217 35.8262L57.5267 37.8425C57.6027 37.953 57.6648 38.022 57.7063 38.0565C57.7477 38.0911 57.8236 38.1049 57.9272 38.1049V38.2292H56.4357V38.1049C56.5255 38.1049 56.5807 38.1049 56.6083 38.0842C56.636 38.0704 56.6429 38.0496 56.6429 38.0082C56.6429 37.9668 56.6221 37.9323 56.5876 37.8977L55.3171 35.8745H53.4182V37.8563L53.4251 37.8701ZM55.69 35.184C56.1112 35.184 56.4081 35.1012 56.5807 34.9492C56.7533 34.7904 56.8362 34.5764 56.8362 34.3002C56.8362 34.1621 56.8224 34.0447 56.7879 33.948C56.7533 33.8513 56.6912 33.7685 56.6014 33.7063C56.5117 33.6442 56.3874 33.5889 56.2355 33.5613C56.0836 33.5268 55.8833 33.513 55.6416 33.513H53.432V35.1909H55.6969L55.69 35.184Z" fill="#F0F0F0"/>
<path d="M60.475 33.1816C60.475 33.1056 60.4612 33.0435 60.4267 33.0021C60.3922 32.9537 60.3231 32.933 60.2264 32.933V32.8087H64.556C64.7355 32.8087 64.846 32.7949 64.8943 32.7604C64.9426 32.7328 64.9634 32.6775 64.9634 32.6016H65.0876V33.7823H64.9634C64.9634 33.6926 64.9357 33.6235 64.8805 33.5683C64.8252 33.513 64.7217 33.4923 64.5629 33.4923H61.3382V35.1288H63.4373C63.5616 35.1288 63.6652 35.1081 63.7411 35.0667C63.8171 35.0252 63.8585 34.9493 63.8585 34.8388H63.9828V36.0886H63.8585C63.8585 35.9851 63.8309 35.916 63.7688 35.8746C63.7066 35.8331 63.603 35.8124 63.458 35.8124H61.3382V37.5663H64.7907C64.9357 37.5663 65.0393 37.5387 65.1084 37.4904C65.1774 37.4351 65.2119 37.3454 65.2119 37.2142H65.3362V38.4433H65.2119C65.2119 38.3121 65.0945 38.243 64.8529 38.243H60.2195V38.1187C60.3162 38.1187 60.3784 38.098 60.4198 38.0497C60.4543 38.0014 60.4681 37.9461 60.4681 37.8702V33.1747L60.475 33.1816Z" fill="#F0F0F0"/>
<path d="M67.6358 38.1187C67.7463 38.1187 67.8153 38.098 67.8498 38.0496C67.8844 38.0013 67.9051 37.9461 67.9051 37.8701V33.1746C67.9051 33.0987 67.8844 33.0365 67.8498 32.9951C67.8084 32.9468 67.7324 32.9261 67.6151 32.9261V32.8018H69.362V32.9261C69.2032 32.9261 69.1273 32.9744 69.1273 33.0573C69.1273 33.0987 69.1411 33.1401 69.1687 33.1746L70.8535 36.4822L72.6005 33.1746C72.6005 33.1746 72.6144 33.1332 72.6282 33.1125C72.6351 33.0918 72.642 33.0711 72.642 33.0503C72.642 33.0158 72.6213 32.9882 72.5867 32.9606C72.5522 32.933 72.4832 32.9261 72.3865 32.9261V32.8018H74.237V32.9261C74.1197 32.9261 74.0437 32.9468 74.0023 32.9951C73.9677 33.0365 73.947 33.0987 73.947 33.1746V37.8701C73.947 37.9461 73.9677 38.0082 74.0023 38.0496C74.0437 38.0911 74.1197 38.1187 74.237 38.1187V38.243H72.787V38.1187C72.9044 38.1187 72.9803 38.098 73.0218 38.0496C73.0563 38.0013 73.077 37.9461 73.077 37.8701V33.7892L73.0425 33.7685L70.8397 38.1394L68.637 33.7685V33.7892L68.6301 37.8701C68.6301 37.9461 68.6301 38.0082 68.6715 38.0496C68.7061 38.0911 68.7682 38.1187 68.8649 38.1187V38.243H67.6358V38.1187Z" fill="#F0F0F0"/>
<path d="M76.785 38.1187C76.8816 38.1187 76.9438 38.098 76.9783 38.0496C77.0128 38.0013 77.0336 37.9461 77.0336 37.8701V33.1746C77.0336 33.0987 77.0128 33.0365 76.9783 32.9951C76.9438 32.9468 76.8816 32.9261 76.785 32.9261V32.8018H78.1522V32.9261C78.0555 32.9261 77.9934 32.9468 77.9588 32.9951C77.9243 33.0365 77.9105 33.0987 77.9105 33.1746V37.8701C77.9105 37.9461 77.9243 38.0082 77.9588 38.0496C77.9934 38.0911 78.0555 38.1187 78.1522 38.1187V38.243H76.785V38.1187Z" fill="#F0F0F0"/>
<path d="M80.8314 33.1815C80.8314 33.1055 80.8107 33.0434 80.7762 33.0019C80.7416 32.9536 80.6795 32.9329 80.5828 32.9329V32.8086H81.95V32.9329C81.8534 32.9329 81.7912 32.9536 81.7567 33.0019C81.7222 33.0434 81.7015 33.1055 81.7015 33.1815V36.489C81.7015 36.8826 81.8465 37.1588 82.1434 37.3245C82.4334 37.4903 82.8684 37.5662 83.4484 37.5662C84.0285 37.5662 84.4635 37.4833 84.7535 37.3245C85.0435 37.1657 85.1954 36.8826 85.1954 36.489V33.1815C85.1954 33.1055 85.1747 33.0434 85.1402 33.0019C85.1057 32.9536 85.0435 32.9329 84.9469 32.9329V32.8086H86.3141V32.9329C86.2174 32.9329 86.1552 32.9536 86.1207 33.0019C86.0862 33.0434 86.0655 33.1055 86.0655 33.1815V36.2611C86.0655 36.6755 86.0033 37.0138 85.8859 37.2762C85.7686 37.5386 85.5959 37.7457 85.3681 37.8977C85.1471 38.0496 84.8709 38.1531 84.5464 38.2015C84.2218 38.2567 83.8558 38.2774 83.4484 38.2774C83.041 38.2774 82.6751 38.2498 82.3505 38.2015C82.026 38.1531 81.7498 38.0496 81.5288 37.8977C81.3079 37.7457 81.1352 37.5386 81.0109 37.2762C80.8936 37.0138 80.8314 36.6755 80.8314 36.2611V33.1815Z" fill="#F0F0F0"/>
<path d="M88.7031 38.1187C88.8136 38.1187 88.8827 38.098 88.9172 38.0496C88.9517 38.0013 88.9724 37.9461 88.9724 37.8701V33.1746C88.9724 33.0987 88.9517 33.0365 88.9172 32.9951C88.8758 32.9468 88.7998 32.9261 88.6824 32.9261V32.8018H90.4294V32.9261C90.2706 32.9261 90.1947 32.9744 90.1947 33.0573C90.1947 33.0987 90.2085 33.1401 90.2361 33.1746L91.9209 36.4822L93.6679 33.1746C93.6679 33.1746 93.6817 33.1332 93.6955 33.1125C93.7024 33.0918 93.7093 33.0711 93.7093 33.0503C93.7093 33.0158 93.6886 32.9882 93.6541 32.9606C93.6196 32.933 93.5505 32.9261 93.4539 32.9261V32.8018H95.3044V32.9261C95.187 32.9261 95.1111 32.9468 95.0697 32.9951C95.0351 33.0365 95.0144 33.0987 95.0144 33.1746V37.8701C95.0144 37.9461 95.0351 38.0082 95.0697 38.0496C95.1111 38.0911 95.187 38.1187 95.3044 38.1187V38.243H93.8544V38.1187C93.9717 38.1187 94.0477 38.098 94.0891 38.0496C94.1237 38.0013 94.1444 37.9461 94.1444 37.8701V33.7892L94.1168 33.7685L91.914 38.1394L89.7113 33.7685V33.7892L89.7044 37.8701C89.7044 37.9461 89.7044 38.0082 89.7458 38.0496C89.7803 38.0911 89.8425 38.1187 89.9392 38.1187V38.243H88.7101V38.1187H88.7031Z" fill="#F0F0F0"/>
<path d="M107.471 39.0643C107.471 39.0643 107.526 39.0021 107.526 38.9745C107.526 38.9469 107.526 38.9262 107.526 38.9054C107.526 38.8709 107.485 38.795 107.402 38.6707C107.319 38.5464 107.16 38.3807 106.919 38.1597C106.573 38.2426 106.201 38.284 105.8 38.284C105.351 38.284 104.937 38.2288 104.557 38.1114C104.177 38.0009 103.846 37.8214 103.57 37.5866C103.294 37.3518 103.073 37.0618 102.921 36.7165C102.769 36.3713 102.686 35.9777 102.686 35.5289C102.686 35.08 102.762 34.6864 102.921 34.3412C103.073 33.9959 103.294 33.7059 103.57 33.4642C103.846 33.2295 104.177 33.0499 104.557 32.9256C104.937 32.8082 105.351 32.7461 105.8 32.7461C106.249 32.7461 106.663 32.8082 107.043 32.9256C107.423 33.043 107.754 33.2226 108.03 33.4642C108.307 33.699 108.528 33.9959 108.679 34.3412C108.831 34.6864 108.914 35.08 108.914 35.5289C108.914 36.0674 108.804 36.5301 108.576 36.9168C108.355 37.3035 108.044 37.6142 107.651 37.8421C107.809 38.0078 107.934 38.1321 108.017 38.2149C108.099 38.2978 108.189 38.3392 108.272 38.3392C108.307 38.3392 108.334 38.3254 108.362 38.2978L108.445 38.3807L107.526 39.1333L107.464 39.0574L107.471 39.0643ZM105.745 36.5715C106.062 36.5715 106.325 36.6406 106.532 36.7787C106.739 36.9168 106.939 37.0825 107.133 37.2828C107.423 37.1101 107.644 36.8753 107.789 36.5853C107.934 36.2953 108.01 35.9363 108.01 35.5289C108.01 34.8798 107.816 34.3757 107.437 34.0028C107.057 33.6369 106.511 33.4504 105.807 33.4504C105.103 33.4504 104.564 33.6369 104.177 34.0028C103.798 34.3688 103.604 34.8798 103.604 35.522C103.604 36.1641 103.798 36.6751 104.177 37.0411C104.557 37.407 105.103 37.5935 105.807 37.5935C105.904 37.5935 106 37.5935 106.09 37.5797C106.18 37.5659 106.27 37.559 106.352 37.5452C106.207 37.414 106.09 37.3104 106.007 37.2275C105.924 37.1447 105.848 37.0825 105.779 37.0342C105.71 36.9858 105.648 36.9513 105.586 36.9306C105.524 36.9099 105.448 36.8961 105.351 36.8961C105.317 36.8961 105.289 36.8961 105.268 36.9099C105.248 36.9099 105.227 36.9168 105.206 36.9168C105.144 36.9168 105.116 36.8892 105.116 36.8477C105.116 36.7718 105.172 36.7027 105.282 36.6544C105.393 36.5991 105.545 36.5715 105.745 36.5715Z" fill="#F0F0F0"/>
<path d="M111.172 33.1815C111.172 33.1055 111.152 33.0434 111.117 33.0019C111.082 32.9536 111.02 32.9329 110.924 32.9329V32.8086H112.291V32.9329C112.194 32.9329 112.132 32.9536 112.098 33.0019C112.063 33.0434 112.042 33.1055 112.042 33.1815V36.489C112.042 36.8826 112.187 37.1588 112.484 37.3245C112.774 37.4903 113.209 37.5662 113.789 37.5662C114.369 37.5662 114.804 37.4833 115.094 37.3245C115.384 37.1657 115.536 36.8826 115.536 36.489V33.1815C115.536 33.1055 115.516 33.0434 115.481 33.0019C115.446 32.9536 115.384 32.9329 115.288 32.9329V32.8086H116.655V32.9329C116.558 32.9329 116.496 32.9536 116.462 33.0019C116.427 33.0434 116.406 33.1055 116.406 33.1815V36.2611C116.406 36.6755 116.344 37.0138 116.227 37.2762C116.109 37.5386 115.937 37.7457 115.709 37.8977C115.488 38.0496 115.212 38.1531 114.887 38.2015C114.563 38.2567 114.197 38.2774 113.789 38.2774C113.382 38.2774 113.016 38.2498 112.691 38.2015C112.367 38.1531 112.091 38.0496 111.87 37.8977C111.649 37.7457 111.476 37.5386 111.352 37.2762C111.234 37.0138 111.172 36.6755 111.172 36.2611V33.1815Z" fill="#F0F0F0"/>
<path d="M119.583 37.6215C119.555 37.6837 119.521 37.7527 119.493 37.8287C119.458 37.9046 119.445 37.9599 119.445 38.0013C119.445 38.0773 119.5 38.1118 119.617 38.1118V38.2361H118.347V38.1118C118.388 38.1118 118.423 38.1118 118.457 38.1049C118.492 38.1049 118.519 38.0773 118.547 38.0427C118.575 38.0082 118.602 37.9599 118.637 37.8908C118.671 37.8287 118.713 37.7389 118.768 37.6284L120.639 33.4508C120.694 33.3335 120.736 33.2437 120.764 33.1884C120.791 33.1332 120.805 33.0849 120.805 33.0503C120.805 32.9675 120.743 32.9261 120.619 32.9261V32.8018H122.131V32.9261C122.02 32.9261 121.965 32.9675 121.965 33.0503C121.965 33.0918 121.986 33.147 122.02 33.2092C122.055 33.2713 122.096 33.368 122.151 33.4854L124.133 37.6008C124.195 37.7251 124.244 37.8218 124.278 37.8908C124.313 37.9599 124.347 38.0082 124.375 38.0427C124.403 38.0773 124.437 38.098 124.472 38.1049C124.506 38.1049 124.554 38.1118 124.617 38.1118V38.2361H123.18V38.1118C123.263 38.1118 123.318 38.098 123.346 38.0773C123.374 38.0496 123.387 38.0151 123.387 37.9668C123.387 37.9322 123.381 37.8977 123.36 37.8563C123.346 37.8218 123.305 37.7389 123.249 37.6146L122.856 36.786H119.928L119.576 37.6146L119.583 37.6215ZM122.511 36.1093L121.344 33.6718L120.266 36.1093H122.511Z" fill="#F0F0F0"/>
<path d="M127.786 32.933C127.689 32.933 127.627 32.9606 127.593 33.0021C127.558 33.0504 127.544 33.1195 127.544 33.2161V37.5594H131.017C131.259 37.5594 131.377 37.4559 131.377 37.2487H131.501V38.4364H131.377C131.377 38.3052 131.259 38.2361 131.017 38.2361H126.426V38.1119C126.522 38.1119 126.584 38.0911 126.619 38.0428C126.653 37.9945 126.674 37.9392 126.674 37.8633V33.1678C126.674 33.0918 126.653 33.0297 126.619 32.9883C126.584 32.9399 126.522 32.9192 126.426 32.9192V32.7949H127.793V32.9192L127.786 32.933Z" fill="#F0F0F0"/>
<path d="M133.317 38.1187C133.414 38.1187 133.476 38.098 133.51 38.0496C133.545 38.0013 133.566 37.9461 133.566 37.8701V33.1746C133.566 33.0987 133.545 33.0365 133.51 32.9951C133.476 32.9468 133.414 32.9261 133.317 32.9261V32.8018H134.684V32.9261C134.587 32.9261 134.525 32.9468 134.491 32.9951C134.456 33.0365 134.442 33.0987 134.442 33.1746V37.8701C134.442 37.9461 134.456 38.0082 134.491 38.0496C134.525 38.0911 134.587 38.1187 134.684 38.1187V38.243H133.317V38.1187Z" fill="#F0F0F0"/>
<path d="M138.71 38.1189C138.807 38.1189 138.869 38.0982 138.903 38.0499C138.938 38.0016 138.959 37.9463 138.959 37.8704V33.4856H137.219C137.087 33.4856 136.998 33.5063 136.942 33.5409C136.887 33.5754 136.86 33.6513 136.86 33.7549H136.735V32.5327H136.86C136.86 32.7122 136.977 32.802 137.219 32.802H141.562C141.804 32.802 141.921 32.7122 141.921 32.5327H142.045V33.7549H141.921C141.921 33.6513 141.893 33.5823 141.838 33.5409C141.783 33.5063 141.693 33.4856 141.562 33.4856H139.822V37.8704C139.822 37.9463 139.843 38.0085 139.877 38.0499C139.912 38.0913 139.974 38.1189 140.07 38.1189V38.2432H138.703V38.1189H138.71Z" fill="#F0F0F0"/>
<path d="M145.512 38.1186C145.608 38.1186 145.67 38.0979 145.705 38.0496C145.739 38.0012 145.76 37.946 145.76 37.87V35.9918L143.765 33.285C143.668 33.1607 143.592 33.071 143.53 33.0157C143.475 32.9605 143.399 32.9329 143.316 32.9329V32.8086H144.876V32.9329C144.704 32.9329 144.614 32.9881 144.614 33.0779C144.614 33.1124 144.635 33.1538 144.676 33.1953C144.717 33.2367 144.759 33.292 144.793 33.3472L146.223 35.2875L147.735 33.285C147.735 33.285 147.79 33.216 147.825 33.1746C147.859 33.1331 147.88 33.0917 147.88 33.0641C147.88 32.9812 147.804 32.9398 147.652 32.9398V32.8155H149.144V32.9398C149.047 32.9398 148.971 32.9674 148.909 33.0296C148.854 33.0917 148.771 33.1746 148.674 33.2919L146.63 35.9987V37.8769C146.63 37.9529 146.651 38.015 146.685 38.0565C146.72 38.0979 146.782 38.1255 146.879 38.1255V38.2498H145.512V38.1255V38.1186Z" fill="#F0F0F0"/>
</svg>
